
<svg width="219px" height="289px" viewBox="0 0 219 289" version="1.1" xmlns="http://www.w3.org/2000/svg" xmlns:xlink="http://www.w3.org/1999/xlink">
    <defs>
        <radialGradient cx="50%" cy="55.816474%" fx="50%" fy="55.816474%" r="291.048177%" gradientTransform="translate(0.500000,0.558165),scale(0.203390,1.000000),scale(1.000000,0.235736),translate(-0.500000,-0.558165)" id="radialGradient-1">
            <stop stop-color="#000000" stop-opacity="0.222316576" offset="0%"></stop>
            <stop stop-color="#FFFFFF" stop-opacity="0" offset="100%"></stop>
        </radialGradient>
    </defs>
    <g id="Page-1" stroke="none" stroke-width="1" fill="none" fill-rule="evenodd">
        <g id="Group" transform="translate(5.000000, 5.000000)">
            <ellipse id="Oval" fill="url(#radialGradient-1)" cx="104.5" cy="278" rx="29.5" ry="6"></ellipse>
            <path d="M6.41720439,140.637956 C2.26651664,129.376241 2.4158453e-13,117.202807 2.4158453e-13,104.5 C2.4158453e-13,104.409025 0.000116251992,104.318078 0.000348615528,104.227158 C0.000116292255,104.144891 1.44757333e-14,104.062664 1.42108547e-14,103.980469 C1.34476294e-14,103.731207 0.0025046431,103.482793 0.00749658824,103.235228 C0.685073745,46.1042582 47.2084236,0 104.5,0 C161.781183,0 208.298046,46.087532 208.99213,103.204137 C208.997371,103.461981 209,103.720756 209,103.980469 C209,104.063388 208.999886,104.146337 208.999657,104.229315 C208.999886,104.319522 209,104.409748 209,104.5 C209,115.927114 207.165859,126.925842 203.775912,137.217849 C184.460015,203.214585 117.524499,273.051576 104.5,272.683594 C91.7314433,272.322843 27.149846,204.84509 6.41720439,140.637956 Z" id="Combined-Shape-Copy" stroke="#FBFBFB" stroke-width="10" fill="#5BD9A3"></path>
            <circle id="Oval-Copy-3" fill="#FBFBFB" cx="104" cy="105" r="92"></circle>
            <path d="M152.123308,122.387602 C131.004236,129.064444 104.724535,127.637273 89.1465259,126.93603 C83.7140126,126.004884 84.5319149,117.847043 73.9478059,117.847043 C69.4698679,117.847043 63.3134246,118.249788 55.4784758,118.288505 C56.4753272,98.7778317 55.8652591,84.7148795 53.6482713,76.0996486 C64.3198969,76.0996486 77.793135,71.553815 88.8656084,69 C91.5310838,87.172613 98.218002,105.687236 129.625665,107.817559 C147.137633,107.817559 151.850565,107.882959 151.850565,120.372208 C151.850565,120.894229 151.713667,121.418118 151.449677,121.9409 C151.675882,122.091927 151.900797,122.239477 152.123308,122.387602 Z M154.227419,124.03836 C155.559743,125.390345 156.603948,127.405552 157,131.39371 L157,134.687295 C157,136.051543 155.885475,137.157484 154.510638,137.157484 C153.135802,137.157484 152.021277,136.051543 152.021277,134.687295 L152.021277,131.39371 C152.021277,131.331726 152.023577,131.270274 152.028099,131.209436 L151.378106,131.282167 C151.43675,131.492399 151.468085,131.713889 151.468085,131.942641 L151.468085,135.236226 C151.468085,136.600474 150.35356,137.706415 148.978723,137.706415 C147.603887,137.706415 146.489362,136.600474 146.489362,135.236226 L146.489362,131.942641 C146.489362,131.904522 146.490232,131.866604 146.491953,131.828907 L145.864121,131.899159 C145.911199,132.088947 145.93617,132.287366 145.93617,132.491572 L145.93617,135.785157 C145.93617,137.149405 144.821645,138.255346 143.446809,138.255346 C142.071972,138.255346 140.957447,137.149405 140.957447,135.785157 L140.957447,132.491572 C140.957447,132.477069 140.957573,132.462596 140.957824,132.448152 L140.348106,132.516377 C140.384887,132.685302 140.404255,132.860658 140.404255,133.040503 L140.404255,136.334088 C140.404255,137.698335 139.28973,138.804277 137.914894,138.804277 C136.540057,138.804277 135.425532,137.698335 135.425532,136.334088 L135.425532,133.067192 L134.830084,133.13382 C134.857832,133.28149 134.87234,133.43378 134.87234,133.589434 L134.87234,136.883019 C134.87234,138.247266 133.757815,139.353207 132.382979,139.353207 C131.008142,139.353207 129.893617,138.247266 129.893617,136.883019 L129.893617,133.68619 L129.310072,133.751486 C129.330052,133.877534 129.340426,134.006747 129.340426,134.138364 L129.340426,137.431949 C129.340426,138.796197 128.2259,139.902138 126.851064,139.902138 C125.476227,139.902138 124.361702,138.796197 124.361702,137.431949 L124.361702,134.305188 L123.788084,134.369373 C123.801562,134.473458 123.808511,134.579572 123.808511,134.687295 L123.808511,137.98088 C123.808511,139.345128 122.693985,140.451069 121.319149,140.451069 C119.944312,140.451069 118.829787,139.345128 118.829787,137.98088 L118.829787,134.924185 L118.264131,134.98748 C118.272374,135.069285 118.276596,135.152266 118.276596,135.236226 L118.276596,138.529811 C118.276596,139.894059 117.162071,141 115.787234,141 C114.412398,141 113.297872,139.894059 113.297872,138.529811 L113.297872,135.543183 L112.638169,135.617001 C112.707437,135.843946 112.744681,136.084701 112.744681,136.334088 L112.744681,138.529811 C112.744681,139.894059 111.630156,141 110.255319,141 C108.880483,141 107.765957,139.894059 107.765957,138.529811 L107.765957,136.334088 C107.765957,136.276073 107.767973,136.218526 107.771938,136.161511 L107.125898,136.2338 C107.182538,136.440677 107.212766,136.658345 107.212766,136.883019 L107.212766,138.529811 C107.212766,139.894059 106.098241,141 104.723404,141 C103.348568,141 102.234043,139.894059 102.234043,138.529811 L102.234043,136.883019 C102.234043,136.779039 102.240517,136.67656 102.253088,136.575956 L101.680851,136.566671 L101.680851,138.529811 C101.680851,139.894059 100.566326,141 99.1914894,141 C97.8166529,141 96.7021277,139.894059 96.7021277,138.529811 L96.7021277,136.485887 L80.106383,136.216607 L80.106383,138.529811 C80.106383,139.894059 78.9918578,141 77.6170213,141 C76.2421848,141 75.1276596,139.894059 75.1276596,138.529811 L75.1276596,136.135823 L74.5744681,136.126847 L74.5744681,138.529811 C74.5744681,139.894059 73.4599429,141 72.0851064,141 C70.7102699,141 69.5957447,139.894059 69.5957447,138.529811 L69.5957447,136.046063 L69.0425532,136.037087 L69.0425532,138.529811 C69.0425532,139.894059 67.928028,141 66.5531915,141 C65.178355,141 64.0638298,139.894059 64.0638298,138.529811 L64.0638298,135.956303 L63.5106383,135.947327 L63.5106383,138.529811 C63.5106383,139.894059 62.3961131,141 61.0212766,141 C59.6464401,141 58.5319149,139.894059 58.5319149,138.529811 L58.5319149,135.866543 L57.9787234,135.857567 L57.9787234,138.529811 C57.9787234,139.894059 56.8641982,141 55.4893617,141 C54.1145252,141 53,139.894059 53,138.529811 L53,135.236226 C53,130.372506 53.7156195,125.782357 55.1468584,121.465781 C55.1990454,121.470315 55.2514102,121.474822 55.3039526,121.4793 C55.3212396,121.182242 55.3381755,120.886374 55.3547603,120.591697 C55.5730235,120.591697 55.7899348,120.591697 56.0054951,120.591697 C63.0674666,120.591697 68.6794425,120.591697 72.8414229,120.591697 C83.4255319,120.591697 82.6076297,128.749538 88.040143,129.680684 C104.418101,130.417937 132.62506,131.957586 154.227419,124.03836 Z" id="Combined-Shape" fill="#5BD9A3"></path>
            <path d="M91.0620117,80 L84,81.5859375" id="Path-3" stroke="#FBFBFB" stroke-width="3" fill="#FBFBFB" stroke-linecap="round"></path>
            <path d="M93.1255563,85.3647467 L86.0635446,86.9506842" id="Path-3-Copy" stroke="#FBFBFB" stroke-width="3" fill="#FBFBFB" stroke-linecap="round" transform="translate(89.594550, 86.157715) rotate(-6.000000) translate(-89.594550, -86.157715) "></path>
            <path d="M95.1497182,90.7168091 L88.0877065,92.3027466" id="Path-3-Copy-2" stroke="#FBFBFB" stroke-width="3" fill="#FBFBFB" stroke-linecap="round" transform="translate(91.618712, 91.509778) rotate(-12.000000) translate(-91.618712, -91.509778) "></path>
            <path d="M98.380187,95.4248169 L91.3181753,97.0107544" id="Path-3-Copy-3" stroke="#FBFBFB" stroke-width="3" fill="#FBFBFB" stroke-linecap="round" transform="translate(94.849181, 96.217786) rotate(-18.000000) translate(-94.849181, -96.217786) "></path>
        </g>
    </g>
</svg>
